<?xml version="1.0" encoding="utf-8"?>
<!-- Generator: Adobe Illustrator 22.0.0, SVG Export Plug-In . SVG Version: 6.00 Build 0)  -->
<svg version="1.1" id="Layer_1" xmlns="http://www.w3.org/2000/svg" xmlns:xlink="http://www.w3.org/1999/xlink" x="0px" y="0px"
	 viewBox="0 0 333.7 213" style="enable-background:new 0 0 333.7 213;" xml:space="preserve">
<style type="text/css">
	.st0{enable-background:new    ;}
	.st1{fill:#808080;}
	.st2{fill:#F7931E;}
	.st3{fill:#FFFFFF;}
</style>
<g>
	<g class="st0">
		<path class="st1" d="M12.3,57c0,5.4,2.3,8.5,9.6,8.5c2.8,0,5.7-0.2,8.5-0.7V48.1h9.9v24.3c-5.8,1.7-12.7,2.5-18.5,2.5
			c-13.5,0-20-5.7-20-16.7V34.6c0-11.4,6.6-16.7,21-16.7c4.5,0,10.9,0.5,15.8,1.8l-1.2,9.1c-5.1-1.1-10.1-1.5-15.5-1.5
			c-7.3,0-9.7,3-9.7,8.6V57z"/>
		<path class="st1" d="M69.9,42.1c-3.9,1.7-7,3.6-10.7,5.9v26H49.1V33.6h8.5l0.7,4.5c2.2-1.5,7-4.3,10.6-5.3L69.9,42.1z"/>
		<path class="st1" d="M84.3,33.6v28.2c0,2.2,0.9,3.2,3.2,3.2c2.5,0,6.9-1.5,10.5-3.4v-28h10.1V74h-7.7l-1-3.4
			c-5.1,2.5-11.4,4.2-16.2,4.2c-6.7,0-9.1-4.7-9.1-11.9V33.6H84.3z"/>
		<path class="st1" d="M152,60.6c0,9-4,14.3-13.4,14.3c-3.6,0-7.6-0.5-10.8-1.2v16.7l-10.1,1.4V33.6h8l1,3.4
			c3.6-2.6,7.7-4.2,12.8-4.2c8.1,0,12.4,4.8,12.4,14V60.6z M127.9,65.2c2.7,0.6,6.1,1.1,9,1.1c3.6,0,5.1-1.7,5.1-5.4V46.6
			c0-3.3-1.2-5.1-5-5.1c-3.3,0-6.9,1.7-9,3.6V65.2z"/>
		<path class="st1" d="M175.6,74.9c-13.9,0-17.6-7.6-17.6-15.9V48.7c0-8.3,3.7-15.9,17.6-15.9c13.9,0,17.6,7.6,17.6,15.9v10.2
			C193.2,67.2,189.5,74.9,175.6,74.9z M175.6,41.4c-5.4,0-7.5,2.4-7.5,7v10.9c0,4.6,2.1,7,7.5,7c5.4,0,7.5-2.4,7.5-7V48.4
			C183.1,43.9,181,41.4,175.6,41.4z"/>
	</g>
</g>
<g>
	<g class="st0">
		<path class="st2" d="M93,88.9v86.6c0,18.5-11.6,37.4-46,37.4S1,193.9,1,175.4V88.9h27.5v84c0,9.9,4.8,15.6,18.5,15.6
			s18.5-5.7,18.5-15.6v-84H93z"/>
		<path class="st2" d="M143.9,130.7V211h-26.2V88.9h33.7l40.2,84.2V88.9h26.2V211h-33.9L143.9,130.7z"/>
		<path class="st2" d="M332.9,175.4c0,18.5-12.8,37.4-47.3,37.4s-47.3-18.9-47.3-37.4v-51c0-18.5,12.8-37.4,47.3-37.4
			s47.3,18.9,47.3,37.4V175.4z M305.4,126.8c0-9.5-6.1-15.4-19.8-15.4s-19.8,5.9-19.8,15.4V173c0,9.5,6.1,15.4,19.8,15.4
			s19.8-5.9,19.8-15.4V126.8z"/>
	</g>
</g>
<g>
	<g>
		<path class="st3" d="M91.3,207.2v-87.8l-20.7,11.2l-11.4-21.8l34.7-20h23.8v118.5H91.3z"/>
	</g>
</g>
</svg>
