<?xml version="1.0" standalone="no"?>
<svg xmlns="http://www.w3.org/2000/svg" version="1.1" width="234" height="234">
	<!-- Created with https://api.qrserver.com (QR Code API, see goQR.me/api for information) -->
	<title>QR Code</title>
	<desc>https://desafio-final-beta.vercel.app</desc>
	<rect style="fill:rgb(255, 255, 255);fill-opacity:1" x="0" y="0" width="234" height="234" />
	<g id="elements">
		<path style="fill:rgb(0, 0, 0)" d="M 6,6 l 6,0 0,6 -6,0 z M 12,6 l 6,0 0,6 -6,0 z M 18,6 l 6,0 0,6 -6,0 z M 24,6 l 6,0 0,6 -6,0 z M 30,6 l 6,0 0,6 -6,0 z M 36,6 l 6,0 0,6 -6,0 z M 42,6 l 6,0 0,6 -6,0 z M 54,6 l 6,0 0,6 -6,0 z M 66,6 l 6,0 0,6 -6,0 z M 90,6 l 6,0 0,6 -6,0 z M 108,6 l 6,0 0,6 -6,0 z M 126,6 l 6,0 0,6 -6,0 z M 132,6 l 6,0 0,6 -6,0 z M 144,6 l 6,0 0,6 -6,0 z M 150,6 l 6,0 0,6 -6,0 z M 174,6 l 6,0 0,6 -6,0 z M 186,6 l 6,0 0,6 -6,0 z M 192,6 l 6,0 0,6 -6,0 z M 198,6 l 6,0 0,6 -6,0 z M 204,6 l 6,0 0,6 -6,0 z M 210,6 l 6,0 0,6 -6,0 z M 216,6 l 6,0 0,6 -6,0 z M 222,6 l 6,0 0,6 -6,0 z M 6,12 l 6,0 0,6 -6,0 z M 42,12 l 6,0 0,6 -6,0 z M 54,12 l 6,0 0,6 -6,0 z M 60,12 l 6,0 0,6 -6,0 z M 90,12 l 6,0 0,6 -6,0 z M 108,12 l 6,0 0,6 -6,0 z M 120,12 l 6,0 0,6 -6,0 z M 150,12 l 6,0 0,6 -6,0 z M 162,12 l 6,0 0,6 -6,0 z M 168,12 l 6,0 0,6 -6,0 z M 174,12 l 6,0 0,6 -6,0 z M 186,12 l 6,0 0,6 -6,0 z M 222,12 l 6,0 0,6 -6,0 z M 6,18 l 6,0 0,6 -6,0 z M 18,18 l 6,0 0,6 -6,0 z M 24,18 l 6,0 0,6 -6,0 z M 30,18 l 6,0 0,6 -6,0 z M 42,18 l 6,0 0,6 -6,0 z M 54,18 l 6,0 0,6 -6,0 z M 60,18 l 6,0 0,6 -6,0 z M 66,18 l 6,0 0,6 -6,0 z M 84,18 l 6,0 0,6 -6,0 z M 90,18 l 6,0 0,6 -6,0 z M 120,18 l 6,0 0,6 -6,0 z M 144,18 l 6,0 0,6 -6,0 z M 150,18 l 6,0 0,6 -6,0 z M 162,18 l 6,0 0,6 -6,0 z M 168,18 l 6,0 0,6 -6,0 z M 186,18 l 6,0 0,6 -6,0 z M 198,18 l 6,0 0,6 -6,0 z M 204,18 l 6,0 0,6 -6,0 z M 210,18 l 6,0 0,6 -6,0 z M 222,18 l 6,0 0,6 -6,0 z M 6,24 l 6,0 0,6 -6,0 z M 18,24 l 6,0 0,6 -6,0 z M 24,24 l 6,0 0,6 -6,0 z M 30,24 l 6,0 0,6 -6,0 z M 42,24 l 6,0 0,6 -6,0 z M 72,24 l 6,0 0,6 -6,0 z M 78,24 l 6,0 0,6 -6,0 z M 102,24 l 6,0 0,6 -6,0 z M 114,24 l 6,0 0,6 -6,0 z M 120,24 l 6,0 0,6 -6,0 z M 144,24 l 6,0 0,6 -6,0 z M 150,24 l 6,0 0,6 -6,0 z M 156,24 l 6,0 0,6 -6,0 z M 162,24 l 6,0 0,6 -6,0 z M 186,24 l 6,0 0,6 -6,0 z M 198,24 l 6,0 0,6 -6,0 z M 204,24 l 6,0 0,6 -6,0 z M 210,24 l 6,0 0,6 -6,0 z M 222,24 l 6,0 0,6 -6,0 z M 6,30 l 6,0 0,6 -6,0 z M 18,30 l 6,0 0,6 -6,0 z M 24,30 l 6,0 0,6 -6,0 z M 30,30 l 6,0 0,6 -6,0 z M 42,30 l 6,0 0,6 -6,0 z M 66,30 l 6,0 0,6 -6,0 z M 78,30 l 6,0 0,6 -6,0 z M 84,30 l 6,0 0,6 -6,0 z M 108,30 l 6,0 0,6 -6,0 z M 126,30 l 6,0 0,6 -6,0 z M 132,30 l 6,0 0,6 -6,0 z M 162,30 l 6,0 0,6 -6,0 z M 186,30 l 6,0 0,6 -6,0 z M 198,30 l 6,0 0,6 -6,0 z M 204,30 l 6,0 0,6 -6,0 z M 210,30 l 6,0 0,6 -6,0 z M 222,30 l 6,0 0,6 -6,0 z M 6,36 l 6,0 0,6 -6,0 z M 42,36 l 6,0 0,6 -6,0 z M 54,36 l 6,0 0,6 -6,0 z M 78,36 l 6,0 0,6 -6,0 z M 84,36 l 6,0 0,6 -6,0 z M 90,36 l 6,0 0,6 -6,0 z M 96,36 l 6,0 0,6 -6,0 z M 102,36 l 6,0 0,6 -6,0 z M 114,36 l 6,0 0,6 -6,0 z M 126,36 l 6,0 0,6 -6,0 z M 132,36 l 6,0 0,6 -6,0 z M 138,36 l 6,0 0,6 -6,0 z M 150,36 l 6,0 0,6 -6,0 z M 168,36 l 6,0 0,6 -6,0 z M 174,36 l 6,0 0,6 -6,0 z M 186,36 l 6,0 0,6 -6,0 z M 222,36 l 6,0 0,6 -6,0 z M 6,42 l 6,0 0,6 -6,0 z M 12,42 l 6,0 0,6 -6,0 z M 18,42 l 6,0 0,6 -6,0 z M 24,42 l 6,0 0,6 -6,0 z M 30,42 l 6,0 0,6 -6,0 z M 36,42 l 6,0 0,6 -6,0 z M 42,42 l 6,0 0,6 -6,0 z M 54,42 l 6,0 0,6 -6,0 z M 66,42 l 6,0 0,6 -6,0 z M 78,42 l 6,0 0,6 -6,0 z M 90,42 l 6,0 0,6 -6,0 z M 102,42 l 6,0 0,6 -6,0 z M 114,42 l 6,0 0,6 -6,0 z M 126,42 l 6,0 0,6 -6,0 z M 138,42 l 6,0 0,6 -6,0 z M 150,42 l 6,0 0,6 -6,0 z M 162,42 l 6,0 0,6 -6,0 z M 174,42 l 6,0 0,6 -6,0 z M 186,42 l 6,0 0,6 -6,0 z M 192,42 l 6,0 0,6 -6,0 z M 198,42 l 6,0 0,6 -6,0 z M 204,42 l 6,0 0,6 -6,0 z M 210,42 l 6,0 0,6 -6,0 z M 216,42 l 6,0 0,6 -6,0 z M 222,42 l 6,0 0,6 -6,0 z M 54,48 l 6,0 0,6 -6,0 z M 72,48 l 6,0 0,6 -6,0 z M 78,48 l 6,0 0,6 -6,0 z M 84,48 l 6,0 0,6 -6,0 z M 90,48 l 6,0 0,6 -6,0 z M 96,48 l 6,0 0,6 -6,0 z M 102,48 l 6,0 0,6 -6,0 z M 108,48 l 6,0 0,6 -6,0 z M 132,48 l 6,0 0,6 -6,0 z M 138,48 l 6,0 0,6 -6,0 z M 144,48 l 6,0 0,6 -6,0 z M 162,48 l 6,0 0,6 -6,0 z M 174,48 l 6,0 0,6 -6,0 z M 18,54 l 6,0 0,6 -6,0 z M 24,54 l 6,0 0,6 -6,0 z M 30,54 l 6,0 0,6 -6,0 z M 42,54 l 6,0 0,6 -6,0 z M 54,54 l 6,0 0,6 -6,0 z M 60,54 l 6,0 0,6 -6,0 z M 66,54 l 6,0 0,6 -6,0 z M 96,54 l 6,0 0,6 -6,0 z M 102,54 l 6,0 0,6 -6,0 z M 108,54 l 6,0 0,6 -6,0 z M 114,54 l 6,0 0,6 -6,0 z M 120,54 l 6,0 0,6 -6,0 z M 138,54 l 6,0 0,6 -6,0 z M 144,54 l 6,0 0,6 -6,0 z M 150,54 l 6,0 0,6 -6,0 z M 180,54 l 6,0 0,6 -6,0 z M 186,54 l 6,0 0,6 -6,0 z M 192,54 l 6,0 0,6 -6,0 z M 210,54 l 6,0 0,6 -6,0 z M 216,54 l 6,0 0,6 -6,0 z M 222,54 l 6,0 0,6 -6,0 z M 12,60 l 6,0 0,6 -6,0 z M 18,60 l 6,0 0,6 -6,0 z M 30,60 l 6,0 0,6 -6,0 z M 54,60 l 6,0 0,6 -6,0 z M 66,60 l 6,0 0,6 -6,0 z M 72,60 l 6,0 0,6 -6,0 z M 84,60 l 6,0 0,6 -6,0 z M 96,60 l 6,0 0,6 -6,0 z M 102,60 l 6,0 0,6 -6,0 z M 108,60 l 6,0 0,6 -6,0 z M 126,60 l 6,0 0,6 -6,0 z M 150,60 l 6,0 0,6 -6,0 z M 156,60 l 6,0 0,6 -6,0 z M 162,60 l 6,0 0,6 -6,0 z M 168,60 l 6,0 0,6 -6,0 z M 174,60 l 6,0 0,6 -6,0 z M 186,60 l 6,0 0,6 -6,0 z M 210,60 l 6,0 0,6 -6,0 z M 6,66 l 6,0 0,6 -6,0 z M 12,66 l 6,0 0,6 -6,0 z M 42,66 l 6,0 0,6 -6,0 z M 78,66 l 6,0 0,6 -6,0 z M 96,66 l 6,0 0,6 -6,0 z M 102,66 l 6,0 0,6 -6,0 z M 126,66 l 6,0 0,6 -6,0 z M 132,66 l 6,0 0,6 -6,0 z M 156,66 l 6,0 0,6 -6,0 z M 162,66 l 6,0 0,6 -6,0 z M 186,66 l 6,0 0,6 -6,0 z M 204,66 l 6,0 0,6 -6,0 z M 210,66 l 6,0 0,6 -6,0 z M 216,66 l 6,0 0,6 -6,0 z M 222,66 l 6,0 0,6 -6,0 z M 12,72 l 6,0 0,6 -6,0 z M 24,72 l 6,0 0,6 -6,0 z M 30,72 l 6,0 0,6 -6,0 z M 36,72 l 6,0 0,6 -6,0 z M 60,72 l 6,0 0,6 -6,0 z M 72,72 l 6,0 0,6 -6,0 z M 84,72 l 6,0 0,6 -6,0 z M 90,72 l 6,0 0,6 -6,0 z M 138,72 l 6,0 0,6 -6,0 z M 144,72 l 6,0 0,6 -6,0 z M 162,72 l 6,0 0,6 -6,0 z M 174,72 l 6,0 0,6 -6,0 z M 186,72 l 6,0 0,6 -6,0 z M 216,72 l 6,0 0,6 -6,0 z M 222,72 l 6,0 0,6 -6,0 z M 6,78 l 6,0 0,6 -6,0 z M 18,78 l 6,0 0,6 -6,0 z M 24,78 l 6,0 0,6 -6,0 z M 42,78 l 6,0 0,6 -6,0 z M 54,78 l 6,0 0,6 -6,0 z M 60,78 l 6,0 0,6 -6,0 z M 66,78 l 6,0 0,6 -6,0 z M 108,78 l 6,0 0,6 -6,0 z M 120,78 l 6,0 0,6 -6,0 z M 138,78 l 6,0 0,6 -6,0 z M 150,78 l 6,0 0,6 -6,0 z M 156,78 l 6,0 0,6 -6,0 z M 162,78 l 6,0 0,6 -6,0 z M 180,78 l 6,0 0,6 -6,0 z M 186,78 l 6,0 0,6 -6,0 z M 198,78 l 6,0 0,6 -6,0 z M 204,78 l 6,0 0,6 -6,0 z M 210,78 l 6,0 0,6 -6,0 z M 216,78 l 6,0 0,6 -6,0 z M 12,84 l 6,0 0,6 -6,0 z M 18,84 l 6,0 0,6 -6,0 z M 24,84 l 6,0 0,6 -6,0 z M 36,84 l 6,0 0,6 -6,0 z M 54,84 l 6,0 0,6 -6,0 z M 60,84 l 6,0 0,6 -6,0 z M 90,84 l 6,0 0,6 -6,0 z M 96,84 l 6,0 0,6 -6,0 z M 108,84 l 6,0 0,6 -6,0 z M 120,84 l 6,0 0,6 -6,0 z M 126,84 l 6,0 0,6 -6,0 z M 132,84 l 6,0 0,6 -6,0 z M 156,84 l 6,0 0,6 -6,0 z M 174,84 l 6,0 0,6 -6,0 z M 180,84 l 6,0 0,6 -6,0 z M 192,84 l 6,0 0,6 -6,0 z M 204,84 l 6,0 0,6 -6,0 z M 210,84 l 6,0 0,6 -6,0 z M 6,90 l 6,0 0,6 -6,0 z M 12,90 l 6,0 0,6 -6,0 z M 18,90 l 6,0 0,6 -6,0 z M 30,90 l 6,0 0,6 -6,0 z M 36,90 l 6,0 0,6 -6,0 z M 42,90 l 6,0 0,6 -6,0 z M 66,90 l 6,0 0,6 -6,0 z M 72,90 l 6,0 0,6 -6,0 z M 96,90 l 6,0 0,6 -6,0 z M 108,90 l 6,0 0,6 -6,0 z M 114,90 l 6,0 0,6 -6,0 z M 126,90 l 6,0 0,6 -6,0 z M 144,90 l 6,0 0,6 -6,0 z M 156,90 l 6,0 0,6 -6,0 z M 162,90 l 6,0 0,6 -6,0 z M 168,90 l 6,0 0,6 -6,0 z M 180,90 l 6,0 0,6 -6,0 z M 204,90 l 6,0 0,6 -6,0 z M 216,90 l 6,0 0,6 -6,0 z M 222,90 l 6,0 0,6 -6,0 z M 18,96 l 6,0 0,6 -6,0 z M 24,96 l 6,0 0,6 -6,0 z M 36,96 l 6,0 0,6 -6,0 z M 48,96 l 6,0 0,6 -6,0 z M 54,96 l 6,0 0,6 -6,0 z M 78,96 l 6,0 0,6 -6,0 z M 90,96 l 6,0 0,6 -6,0 z M 102,96 l 6,0 0,6 -6,0 z M 120,96 l 6,0 0,6 -6,0 z M 132,96 l 6,0 0,6 -6,0 z M 150,96 l 6,0 0,6 -6,0 z M 174,96 l 6,0 0,6 -6,0 z M 180,96 l 6,0 0,6 -6,0 z M 192,96 l 6,0 0,6 -6,0 z M 216,96 l 6,0 0,6 -6,0 z M 6,102 l 6,0 0,6 -6,0 z M 18,102 l 6,0 0,6 -6,0 z M 24,102 l 6,0 0,6 -6,0 z M 42,102 l 6,0 0,6 -6,0 z M 54,102 l 6,0 0,6 -6,0 z M 78,102 l 6,0 0,6 -6,0 z M 90,102 l 6,0 0,6 -6,0 z M 96,102 l 6,0 0,6 -6,0 z M 102,102 l 6,0 0,6 -6,0 z M 108,102 l 6,0 0,6 -6,0 z M 120,102 l 6,0 0,6 -6,0 z M 132,102 l 6,0 0,6 -6,0 z M 138,102 l 6,0 0,6 -6,0 z M 144,102 l 6,0 0,6 -6,0 z M 156,102 l 6,0 0,6 -6,0 z M 162,102 l 6,0 0,6 -6,0 z M 168,102 l 6,0 0,6 -6,0 z M 186,102 l 6,0 0,6 -6,0 z M 198,102 l 6,0 0,6 -6,0 z M 210,102 l 6,0 0,6 -6,0 z M 222,102 l 6,0 0,6 -6,0 z M 6,108 l 6,0 0,6 -6,0 z M 18,108 l 6,0 0,6 -6,0 z M 30,108 l 6,0 0,6 -6,0 z M 48,108 l 6,0 0,6 -6,0 z M 60,108 l 6,0 0,6 -6,0 z M 72,108 l 6,0 0,6 -6,0 z M 90,108 l 6,0 0,6 -6,0 z M 96,108 l 6,0 0,6 -6,0 z M 102,108 l 6,0 0,6 -6,0 z M 108,108 l 6,0 0,6 -6,0 z M 132,108 l 6,0 0,6 -6,0 z M 138,108 l 6,0 0,6 -6,0 z M 144,108 l 6,0 0,6 -6,0 z M 150,108 l 6,0 0,6 -6,0 z M 174,108 l 6,0 0,6 -6,0 z M 192,108 l 6,0 0,6 -6,0 z M 204,108 l 6,0 0,6 -6,0 z M 6,114 l 6,0 0,6 -6,0 z M 12,114 l 6,0 0,6 -6,0 z M 24,114 l 6,0 0,6 -6,0 z M 36,114 l 6,0 0,6 -6,0 z M 42,114 l 6,0 0,6 -6,0 z M 54,114 l 6,0 0,6 -6,0 z M 60,114 l 6,0 0,6 -6,0 z M 84,114 l 6,0 0,6 -6,0 z M 90,114 l 6,0 0,6 -6,0 z M 96,114 l 6,0 0,6 -6,0 z M 102,114 l 6,0 0,6 -6,0 z M 144,114 l 6,0 0,6 -6,0 z M 156,114 l 6,0 0,6 -6,0 z M 168,114 l 6,0 0,6 -6,0 z M 186,114 l 6,0 0,6 -6,0 z M 192,114 l 6,0 0,6 -6,0 z M 216,114 l 6,0 0,6 -6,0 z M 222,114 l 6,0 0,6 -6,0 z M 36,120 l 6,0 0,6 -6,0 z M 60,120 l 6,0 0,6 -6,0 z M 72,120 l 6,0 0,6 -6,0 z M 84,120 l 6,0 0,6 -6,0 z M 90,120 l 6,0 0,6 -6,0 z M 108,120 l 6,0 0,6 -6,0 z M 120,120 l 6,0 0,6 -6,0 z M 138,120 l 6,0 0,6 -6,0 z M 144,120 l 6,0 0,6 -6,0 z M 174,120 l 6,0 0,6 -6,0 z M 180,120 l 6,0 0,6 -6,0 z M 186,120 l 6,0 0,6 -6,0 z M 198,120 l 6,0 0,6 -6,0 z M 216,120 l 6,0 0,6 -6,0 z M 222,120 l 6,0 0,6 -6,0 z M 12,126 l 6,0 0,6 -6,0 z M 18,126 l 6,0 0,6 -6,0 z M 24,126 l 6,0 0,6 -6,0 z M 42,126 l 6,0 0,6 -6,0 z M 48,126 l 6,0 0,6 -6,0 z M 72,126 l 6,0 0,6 -6,0 z M 84,126 l 6,0 0,6 -6,0 z M 90,126 l 6,0 0,6 -6,0 z M 102,126 l 6,0 0,6 -6,0 z M 144,126 l 6,0 0,6 -6,0 z M 150,126 l 6,0 0,6 -6,0 z M 156,126 l 6,0 0,6 -6,0 z M 162,126 l 6,0 0,6 -6,0 z M 168,126 l 6,0 0,6 -6,0 z M 186,126 l 6,0 0,6 -6,0 z M 192,126 l 6,0 0,6 -6,0 z M 198,126 l 6,0 0,6 -6,0 z M 204,126 l 6,0 0,6 -6,0 z M 210,126 l 6,0 0,6 -6,0 z M 216,126 l 6,0 0,6 -6,0 z M 222,126 l 6,0 0,6 -6,0 z M 30,132 l 6,0 0,6 -6,0 z M 54,132 l 6,0 0,6 -6,0 z M 60,132 l 6,0 0,6 -6,0 z M 66,132 l 6,0 0,6 -6,0 z M 84,132 l 6,0 0,6 -6,0 z M 102,132 l 6,0 0,6 -6,0 z M 108,132 l 6,0 0,6 -6,0 z M 120,132 l 6,0 0,6 -6,0 z M 132,132 l 6,0 0,6 -6,0 z M 144,132 l 6,0 0,6 -6,0 z M 156,132 l 6,0 0,6 -6,0 z M 192,132 l 6,0 0,6 -6,0 z M 204,132 l 6,0 0,6 -6,0 z M 6,138 l 6,0 0,6 -6,0 z M 12,138 l 6,0 0,6 -6,0 z M 24,138 l 6,0 0,6 -6,0 z M 30,138 l 6,0 0,6 -6,0 z M 36,138 l 6,0 0,6 -6,0 z M 42,138 l 6,0 0,6 -6,0 z M 48,138 l 6,0 0,6 -6,0 z M 54,138 l 6,0 0,6 -6,0 z M 66,138 l 6,0 0,6 -6,0 z M 72,138 l 6,0 0,6 -6,0 z M 78,138 l 6,0 0,6 -6,0 z M 102,138 l 6,0 0,6 -6,0 z M 108,138 l 6,0 0,6 -6,0 z M 114,138 l 6,0 0,6 -6,0 z M 126,138 l 6,0 0,6 -6,0 z M 132,138 l 6,0 0,6 -6,0 z M 138,138 l 6,0 0,6 -6,0 z M 144,138 l 6,0 0,6 -6,0 z M 156,138 l 6,0 0,6 -6,0 z M 162,138 l 6,0 0,6 -6,0 z M 168,138 l 6,0 0,6 -6,0 z M 180,138 l 6,0 0,6 -6,0 z M 204,138 l 6,0 0,6 -6,0 z M 210,138 l 6,0 0,6 -6,0 z M 222,138 l 6,0 0,6 -6,0 z M 12,144 l 6,0 0,6 -6,0 z M 30,144 l 6,0 0,6 -6,0 z M 36,144 l 6,0 0,6 -6,0 z M 96,144 l 6,0 0,6 -6,0 z M 132,144 l 6,0 0,6 -6,0 z M 138,144 l 6,0 0,6 -6,0 z M 144,144 l 6,0 0,6 -6,0 z M 156,144 l 6,0 0,6 -6,0 z M 192,144 l 6,0 0,6 -6,0 z M 222,144 l 6,0 0,6 -6,0 z M 6,150 l 6,0 0,6 -6,0 z M 12,150 l 6,0 0,6 -6,0 z M 18,150 l 6,0 0,6 -6,0 z M 36,150 l 6,0 0,6 -6,0 z M 42,150 l 6,0 0,6 -6,0 z M 60,150 l 6,0 0,6 -6,0 z M 78,150 l 6,0 0,6 -6,0 z M 84,150 l 6,0 0,6 -6,0 z M 102,150 l 6,0 0,6 -6,0 z M 108,150 l 6,0 0,6 -6,0 z M 114,150 l 6,0 0,6 -6,0 z M 120,150 l 6,0 0,6 -6,0 z M 132,150 l 6,0 0,6 -6,0 z M 138,150 l 6,0 0,6 -6,0 z M 144,150 l 6,0 0,6 -6,0 z M 150,150 l 6,0 0,6 -6,0 z M 162,150 l 6,0 0,6 -6,0 z M 174,150 l 6,0 0,6 -6,0 z M 180,150 l 6,0 0,6 -6,0 z M 192,150 l 6,0 0,6 -6,0 z M 198,150 l 6,0 0,6 -6,0 z M 204,150 l 6,0 0,6 -6,0 z M 210,150 l 6,0 0,6 -6,0 z M 216,150 l 6,0 0,6 -6,0 z M 6,156 l 6,0 0,6 -6,0 z M 36,156 l 6,0 0,6 -6,0 z M 54,156 l 6,0 0,6 -6,0 z M 84,156 l 6,0 0,6 -6,0 z M 96,156 l 6,0 0,6 -6,0 z M 102,156 l 6,0 0,6 -6,0 z M 120,156 l 6,0 0,6 -6,0 z M 132,156 l 6,0 0,6 -6,0 z M 168,156 l 6,0 0,6 -6,0 z M 186,156 l 6,0 0,6 -6,0 z M 192,156 l 6,0 0,6 -6,0 z M 204,156 l 6,0 0,6 -6,0 z M 6,162 l 6,0 0,6 -6,0 z M 36,162 l 6,0 0,6 -6,0 z M 42,162 l 6,0 0,6 -6,0 z M 48,162 l 6,0 0,6 -6,0 z M 60,162 l 6,0 0,6 -6,0 z M 90,162 l 6,0 0,6 -6,0 z M 102,162 l 6,0 0,6 -6,0 z M 132,162 l 6,0 0,6 -6,0 z M 144,162 l 6,0 0,6 -6,0 z M 150,162 l 6,0 0,6 -6,0 z M 162,162 l 6,0 0,6 -6,0 z M 168,162 l 6,0 0,6 -6,0 z M 174,162 l 6,0 0,6 -6,0 z M 186,162 l 6,0 0,6 -6,0 z M 222,162 l 6,0 0,6 -6,0 z M 6,168 l 6,0 0,6 -6,0 z M 66,168 l 6,0 0,6 -6,0 z M 90,168 l 6,0 0,6 -6,0 z M 96,168 l 6,0 0,6 -6,0 z M 114,168 l 6,0 0,6 -6,0 z M 126,168 l 6,0 0,6 -6,0 z M 132,168 l 6,0 0,6 -6,0 z M 144,168 l 6,0 0,6 -6,0 z M 168,168 l 6,0 0,6 -6,0 z M 180,168 l 6,0 0,6 -6,0 z M 222,168 l 6,0 0,6 -6,0 z M 6,174 l 6,0 0,6 -6,0 z M 24,174 l 6,0 0,6 -6,0 z M 30,174 l 6,0 0,6 -6,0 z M 42,174 l 6,0 0,6 -6,0 z M 48,174 l 6,0 0,6 -6,0 z M 54,174 l 6,0 0,6 -6,0 z M 60,174 l 6,0 0,6 -6,0 z M 78,174 l 6,0 0,6 -6,0 z M 84,174 l 6,0 0,6 -6,0 z M 90,174 l 6,0 0,6 -6,0 z M 96,174 l 6,0 0,6 -6,0 z M 102,174 l 6,0 0,6 -6,0 z M 108,174 l 6,0 0,6 -6,0 z M 114,174 l 6,0 0,6 -6,0 z M 120,174 l 6,0 0,6 -6,0 z M 144,174 l 6,0 0,6 -6,0 z M 150,174 l 6,0 0,6 -6,0 z M 156,174 l 6,0 0,6 -6,0 z M 162,174 l 6,0 0,6 -6,0 z M 168,174 l 6,0 0,6 -6,0 z M 174,174 l 6,0 0,6 -6,0 z M 180,174 l 6,0 0,6 -6,0 z M 186,174 l 6,0 0,6 -6,0 z M 192,174 l 6,0 0,6 -6,0 z M 198,174 l 6,0 0,6 -6,0 z M 210,174 l 6,0 0,6 -6,0 z M 216,174 l 6,0 0,6 -6,0 z M 54,180 l 6,0 0,6 -6,0 z M 66,180 l 6,0 0,6 -6,0 z M 72,180 l 6,0 0,6 -6,0 z M 78,180 l 6,0 0,6 -6,0 z M 84,180 l 6,0 0,6 -6,0 z M 96,180 l 6,0 0,6 -6,0 z M 114,180 l 6,0 0,6 -6,0 z M 132,180 l 6,0 0,6 -6,0 z M 138,180 l 6,0 0,6 -6,0 z M 144,180 l 6,0 0,6 -6,0 z M 174,180 l 6,0 0,6 -6,0 z M 198,180 l 6,0 0,6 -6,0 z M 216,180 l 6,0 0,6 -6,0 z M 6,186 l 6,0 0,6 -6,0 z M 12,186 l 6,0 0,6 -6,0 z M 18,186 l 6,0 0,6 -6,0 z M 24,186 l 6,0 0,6 -6,0 z M 30,186 l 6,0 0,6 -6,0 z M 36,186 l 6,0 0,6 -6,0 z M 42,186 l 6,0 0,6 -6,0 z M 66,186 l 6,0 0,6 -6,0 z M 78,186 l 6,0 0,6 -6,0 z M 84,186 l 6,0 0,6 -6,0 z M 96,186 l 6,0 0,6 -6,0 z M 102,186 l 6,0 0,6 -6,0 z M 120,186 l 6,0 0,6 -6,0 z M 126,186 l 6,0 0,6 -6,0 z M 132,186 l 6,0 0,6 -6,0 z M 174,186 l 6,0 0,6 -6,0 z M 186,186 l 6,0 0,6 -6,0 z M 198,186 l 6,0 0,6 -6,0 z M 204,186 l 6,0 0,6 -6,0 z M 216,186 l 6,0 0,6 -6,0 z M 222,186 l 6,0 0,6 -6,0 z M 6,192 l 6,0 0,6 -6,0 z M 42,192 l 6,0 0,6 -6,0 z M 60,192 l 6,0 0,6 -6,0 z M 78,192 l 6,0 0,6 -6,0 z M 90,192 l 6,0 0,6 -6,0 z M 96,192 l 6,0 0,6 -6,0 z M 108,192 l 6,0 0,6 -6,0 z M 114,192 l 6,0 0,6 -6,0 z M 120,192 l 6,0 0,6 -6,0 z M 126,192 l 6,0 0,6 -6,0 z M 132,192 l 6,0 0,6 -6,0 z M 138,192 l 6,0 0,6 -6,0 z M 162,192 l 6,0 0,6 -6,0 z M 174,192 l 6,0 0,6 -6,0 z M 198,192 l 6,0 0,6 -6,0 z M 216,192 l 6,0 0,6 -6,0 z M 222,192 l 6,0 0,6 -6,0 z M 6,198 l 6,0 0,6 -6,0 z M 18,198 l 6,0 0,6 -6,0 z M 24,198 l 6,0 0,6 -6,0 z M 30,198 l 6,0 0,6 -6,0 z M 42,198 l 6,0 0,6 -6,0 z M 54,198 l 6,0 0,6 -6,0 z M 60,198 l 6,0 0,6 -6,0 z M 72,198 l 6,0 0,6 -6,0 z M 78,198 l 6,0 0,6 -6,0 z M 96,198 l 6,0 0,6 -6,0 z M 102,198 l 6,0 0,6 -6,0 z M 108,198 l 6,0 0,6 -6,0 z M 114,198 l 6,0 0,6 -6,0 z M 132,198 l 6,0 0,6 -6,0 z M 138,198 l 6,0 0,6 -6,0 z M 156,198 l 6,0 0,6 -6,0 z M 162,198 l 6,0 0,6 -6,0 z M 168,198 l 6,0 0,6 -6,0 z M 174,198 l 6,0 0,6 -6,0 z M 180,198 l 6,0 0,6 -6,0 z M 186,198 l 6,0 0,6 -6,0 z M 192,198 l 6,0 0,6 -6,0 z M 198,198 l 6,0 0,6 -6,0 z M 210,198 l 6,0 0,6 -6,0 z M 216,198 l 6,0 0,6 -6,0 z M 222,198 l 6,0 0,6 -6,0 z M 6,204 l 6,0 0,6 -6,0 z M 18,204 l 6,0 0,6 -6,0 z M 24,204 l 6,0 0,6 -6,0 z M 30,204 l 6,0 0,6 -6,0 z M 42,204 l 6,0 0,6 -6,0 z M 54,204 l 6,0 0,6 -6,0 z M 78,204 l 6,0 0,6 -6,0 z M 84,204 l 6,0 0,6 -6,0 z M 108,204 l 6,0 0,6 -6,0 z M 132,204 l 6,0 0,6 -6,0 z M 150,204 l 6,0 0,6 -6,0 z M 168,204 l 6,0 0,6 -6,0 z M 174,204 l 6,0 0,6 -6,0 z M 186,204 l 6,0 0,6 -6,0 z M 192,204 l 6,0 0,6 -6,0 z M 198,204 l 6,0 0,6 -6,0 z M 6,210 l 6,0 0,6 -6,0 z M 18,210 l 6,0 0,6 -6,0 z M 24,210 l 6,0 0,6 -6,0 z M 30,210 l 6,0 0,6 -6,0 z M 42,210 l 6,0 0,6 -6,0 z M 54,210 l 6,0 0,6 -6,0 z M 66,210 l 6,0 0,6 -6,0 z M 72,210 l 6,0 0,6 -6,0 z M 78,210 l 6,0 0,6 -6,0 z M 90,210 l 6,0 0,6 -6,0 z M 96,210 l 6,0 0,6 -6,0 z M 108,210 l 6,0 0,6 -6,0 z M 120,210 l 6,0 0,6 -6,0 z M 132,210 l 6,0 0,6 -6,0 z M 138,210 l 6,0 0,6 -6,0 z M 156,210 l 6,0 0,6 -6,0 z M 174,210 l 6,0 0,6 -6,0 z M 180,210 l 6,0 0,6 -6,0 z M 192,210 l 6,0 0,6 -6,0 z M 204,210 l 6,0 0,6 -6,0 z M 210,210 l 6,0 0,6 -6,0 z M 222,210 l 6,0 0,6 -6,0 z M 6,216 l 6,0 0,6 -6,0 z M 42,216 l 6,0 0,6 -6,0 z M 60,216 l 6,0 0,6 -6,0 z M 72,216 l 6,0 0,6 -6,0 z M 96,216 l 6,0 0,6 -6,0 z M 114,216 l 6,0 0,6 -6,0 z M 126,216 l 6,0 0,6 -6,0 z M 150,216 l 6,0 0,6 -6,0 z M 162,216 l 6,0 0,6 -6,0 z M 168,216 l 6,0 0,6 -6,0 z M 174,216 l 6,0 0,6 -6,0 z M 180,216 l 6,0 0,6 -6,0 z M 192,216 l 6,0 0,6 -6,0 z M 222,216 l 6,0 0,6 -6,0 z M 6,222 l 6,0 0,6 -6,0 z M 12,222 l 6,0 0,6 -6,0 z M 18,222 l 6,0 0,6 -6,0 z M 24,222 l 6,0 0,6 -6,0 z M 30,222 l 6,0 0,6 -6,0 z M 36,222 l 6,0 0,6 -6,0 z M 42,222 l 6,0 0,6 -6,0 z M 66,222 l 6,0 0,6 -6,0 z M 90,222 l 6,0 0,6 -6,0 z M 102,222 l 6,0 0,6 -6,0 z M 114,222 l 6,0 0,6 -6,0 z M 120,222 l 6,0 0,6 -6,0 z M 126,222 l 6,0 0,6 -6,0 z M 138,222 l 6,0 0,6 -6,0 z M 150,222 l 6,0 0,6 -6,0 z M 156,222 l 6,0 0,6 -6,0 z M 162,222 l 6,0 0,6 -6,0 z M 180,222 l 6,0 0,6 -6,0 z M 186,222 l 6,0 0,6 -6,0 z M 192,222 l 6,0 0,6 -6,0 z M 204,222 l 6,0 0,6 -6,0 z M 210,222 l 6,0 0,6 -6,0 z M 216,222 l 6,0 0,6 -6,0 z M 222,222 l 6,0 0,6 -6,0 z " />
	</g>
</svg>
